<?xml version="1.0" encoding="UTF-8"?>
<svg version="1.1" xmlns="http://www.w3.org/2000/svg" width="161" height="153">
<path d="M0 0 C53.13 0 106.26 0 161 0 C161 50.49 161 100.98 161 153 C107.87 153 54.74 153 0 153 C0 102.51 0 52.02 0 0 Z " fill="#26B0F5" transform="translate(0,0)"/>
<path d="M0 0 C53.13 0 106.26 0 161 0 C161 50.49 161 100.98 161 153 C107.87 153 54.74 153 0 153 C0 102.51 0 52.02 0 0 Z M42.609375 20.95703125 C37.89257208 26.9112132 37.89257208 26.9112132 36 34 C35.46375 34.226875 34.9275 34.45375 34.375 34.6875 C28.26640358 38.06330328 24.98566776 41.8075039 22 48 C21.02797817 51.64347257 20.89797534 55.1651069 20.81030273 58.92456055 C20.641233 65.09389462 20.38011513 70.12554295 17.4375 75.6875 C13.75311491 82.75550405 13.5403445 90.34889434 15.921875 97.9375 C17.76699494 101.96321623 19.52751422 104.90158848 23.1875 107.4375 C26.90201602 110.82183682 26.74334347 113.32637223 27.38671875 118.1484375 C28.40706742 122.89273387 30.99756788 126.27517819 34 130 C34.7425 130.928125 35.485 131.85625 36.25 132.8125 C43.30812922 138.42692097 50.68408088 139.72464132 59.5859375 139.453125 C66.11947594 138.58597345 71.07601319 136.11638549 75.5 131.25 C75.995 130.5075 76.49 129.765 77 129 C77.66 128.67 78.32 128.34 79 128 C79.25265625 128.60585937 79.5053125 129.21171875 79.765625 129.8359375 C82.26925253 134.22520855 87.32084615 136.19858566 91.75 138.3125 C101.51143252 140.37741842 109.29727966 139.06840538 117.9140625 134.13671875 C123.82128141 130.04653047 126.64307823 124.65175699 129 118 C129.26198762 115.92833732 129.26198762 115.92833732 129.3125 113.9375 C130.15543116 109.10980337 131.29373263 108.91284357 135 106 C140.46068206 98.24133025 142.61739865 90.38794433 141 81 C139.93219135 78.37945521 139.93219135 78.37945521 138.5625 75.875 C135.81018604 70.65403674 135.60597619 66.21041343 135.5 60.4375 C135.28493324 51.72814284 134.19457415 45.42351777 127.99609375 38.88671875 C125.0628582 36.19116711 122.80493661 34.2683122 119 33 C118.2265625 31.14453125 118.2265625 31.14453125 117.625 28.8125 C115.51328577 22.04858283 112.40762684 18.54514954 106.3125 15.125 C98.79699241 11.68965703 92.79130512 12.16826362 85.125 14.9375 C84.24070312 15.29714844 83.35640625 15.65679687 82.4453125 16.02734375 C80.27317475 16.89134104 78.30798337 17.63584058 76 18 C73.5625 16.6875 73.5625 16.6875 71 15 C61.16921041 9.66328565 49.80363032 13.21825661 42.609375 20.95703125 Z " fill="#FCFEFE" transform="translate(0,0)"/>
<path d="M0 0 C3.22203912 2.63621383 5.47140086 5.13579317 7 9 C7.43301038 13.59298923 7.32419771 18.20126124 7.3125 22.8125 C7.32861328 24.07126953 7.34472656 25.33003906 7.36132812 26.62695312 C7.36841189 40.06486478 7.36841189 40.06486478 2.3515625 45.92578125 C-0.96081317 48.58617348 -3.86308316 50.74638884 -8 52 C-7.67 54.97 -7.34 57.94 -7 61 C-2.9879712 61.24563442 0.10241692 61.15483692 3.74609375 59.48828125 C5.35677734 58.75158203 5.35677734 58.75158203 7 58 C7.07451364 62.3049777 7.12877223 66.60960734 7.16479492 70.91503906 C7.17982196 72.37767075 7.20024955 73.84025782 7.22631836 75.30273438 C7.26297267 77.4128728 7.27978676 79.52241226 7.29296875 81.6328125 C7.31653442 83.53377686 7.31653442 83.53377686 7.34057617 85.47314453 C6.72397403 91.8584023 3.79315765 95.89157916 -1 100 C-5.08409791 102.31800152 -9.3915863 102.72573444 -14 102 C-18.84136862 99.53185129 -21.78000013 96.26176453 -25 92 C-25 91.67 -25 91.34 -25 91 C-23.865625 90.690625 -22.73125 90.38125 -21.5625 90.0625 C-18.21224901 89.37075469 -18.21224901 89.37075469 -17 88 C-16.95919217 86.00041636 -16.95745644 83.99954746 -17 82 C-17.8353125 81.76216797 -17.8353125 81.76216797 -18.6875 81.51953125 C-31.62095664 77.56521427 -31.62095664 77.56521427 -35.38671875 71.921875 C-37.63316847 67.28709453 -38.92112628 63.15830719 -38 58 C-35.75712715 53.75301174 -33.16020198 50.06860709 -29.625 46.8125 C-27.72013634 45.01534149 -27.72013634 45.01534149 -27.5 41.9375 C-27.6656148 38.88516736 -27.6656148 38.88516736 -30 37.5625 C-32 36 -32 36 -32.5625 32.8125 C-31.84765894 27.96746612 -29.84078344 24.90607723 -27 21 C-23.125 22.875 -23.125 22.875 -22 24 C-19 24.16666667 -19 24.16666667 -16 24 C-15.67 23.67 -15.34 23.34 -15 23 C-15.07562485 19.68763167 -15.17654345 16.38449559 -15.390625 13.078125 C-15.51102728 8.9844474 -15.23050364 7.28239516 -12.60546875 4.06640625 C-8.3571288 0.69703319 -5.55457925 -0.79351132 0 0 Z " fill="#F8FDFE" transform="translate(65,25)"/>
<path d="M0 0 C2.875 2.5 2.875 2.5 5 5 C5.33 5.33 5.66 5.66 6 6 C6.06016854 9.42960669 6.01985368 12.84451583 5.9609375 16.2734375 C5.94026472 18.18222413 5.9665157 20.09139512 6 22 C7.05310277 23.27003323 7.05310277 23.27003323 9.4375 23.1875 C12.16734675 23.26839983 12.16734675 23.26839983 14 21 C16.625 20.875 16.625 20.875 19 21 C23.97622028 29.75281602 23.97622028 29.75281602 23 35 C21.66666667 36 20.33333333 37 19 38 C18.07880436 40.78106497 18.07880436 40.78106497 19 44 C20.61995289 46.22164968 22.3713596 48.1837023 24.2734375 50.16796875 C27.86173094 53.97545659 28.2732246 56.32228114 28.25 61.4375 C28.25773437 63.13712891 28.25773437 63.13712891 28.265625 64.87109375 C27.8514921 69.74933574 26.7218739 71.38339937 23 74.5625 C19.26353129 77.12442475 15.3949767 78.2901269 11.0390625 79.421875 C9.02301375 79.81451545 9.02301375 79.81451545 8 81 C7.95919217 82.99958364 7.95745644 85.00045254 8 87 C10.64 87.99 13.28 88.98 16 90 C14.63310446 93.15069422 13.14342115 95.00891774 10.5 97.1875 C9.8915625 97.69667969 9.283125 98.20585938 8.65625 98.73046875 C5.01528097 101.52130586 1.42801547 101.44693988 -3 101 C-8.15644045 99.18007984 -10.86733271 96.43794532 -14 92 C-15.81200595 87.55819398 -16.23760366 83.84921309 -16.1953125 79.0703125 C-16.18886719 77.78125 -16.18242188 76.4921875 -16.17578125 75.1640625 C-16.15907463 73.81770558 -16.14214479 72.47135141 -16.125 71.125 C-16.11495664 69.75521483 -16.10583317 68.38542258 -16.09765625 67.015625 C-16.07414412 63.67690244 -16.0412793 60.33854239 -16 57 C-15.1946582 57.32158081 -15.1946582 57.32158081 -14.37304688 57.6496582 C-13.66212891 57.92640381 -12.95121094 58.20314941 -12.21875 58.48828125 C-11.1659082 58.90267456 -11.1659082 58.90267456 -10.09179688 59.32543945 C-7.34234137 60.21208109 -4.86337379 60.21475303 -2 60 C-1.34 57.03 -0.68 54.06 0 51 C-0.721875 50.896875 -1.44375 50.79375 -2.1875 50.6875 C-7.33199126 49.42995769 -9.93029295 47.41592052 -12.75 43 C-16.56409726 36.62707799 -16.28756828 30.44887485 -16.35009766 23.23095703 C-16.36665888 21.83039739 -16.39395225 20.42992234 -16.43212891 19.02978516 C-16.48708507 17.00118605 -16.50879305 14.97455703 -16.5234375 12.9453125 C-16.5531665 11.12797607 -16.5531665 11.12797607 -16.58349609 9.27392578 C-15.72408492 4.45187394 -12.94278949 2.42471229 -9.125 -0.375 C-5.75019879 -1.36758859 -3.37754007 -0.88882633 0 0 Z " fill="#F8FDFE" transform="translate(100,26)"/>
<path d="M0 0 C0.66 0.33 1.32 0.66 2 1 C0.71451591 2.33929505 -0.57858155 3.67128643 -1.875 5 C-2.59429687 5.7425 -3.31359375 6.485 -4.0546875 7.25 C-6 9 -6 9 -8 9 C-8.226875 10.216875 -8.45375 11.43375 -8.6875 12.6875 C-10.60288515 18.66122596 -14.88167498 22.31305395 -19.35229492 26.48120117 C-20.20078003 27.27361206 -20.20078003 27.27361206 -21.06640625 28.08203125 C-21.58146729 28.54843018 -22.09652832 29.0148291 -22.62719727 29.49536133 C-25.47323054 32.61471097 -26.2445058 35.51950877 -26.4921875 39.66796875 C-26.55792969 40.56193359 -26.62367187 41.45589844 -26.69140625 42.37695312 C-26.81249921 44.23070604 -26.92722552 46.08488732 -27.03515625 47.93945312 C-27.46422808 53.59429603 -28.61182206 57.73012764 -31.10009766 62.80541992 C-32.60881915 66.48471931 -32.67413223 70.12772145 -32.75 74.0625 C-32.77964844 74.83271484 -32.80929688 75.60292969 -32.83984375 76.39648438 C-32.90943276 78.26378944 -32.95710427 80.13189112 -33 82 C-35.77737117 79.22262883 -35.36518954 77.4459971 -35.4375 73.5625 C-35.38673318 68.55689203 -34.91237844 65.10201153 -32.5625 60.6875 C-29.98434481 55.81283683 -29.54048307 51.77922103 -29.375 46.375 C-29.06819061 36.73211779 -27.84332416 30.00626045 -21 23 C-16.47368421 19 -16.47368421 19 -14 19 C-13.773125 18.34 -13.54625 17.68 -13.3125 17 C-10.1682618 9.81316983 -6.2461519 4.75211556 0 0 Z " fill="#40B0E8" transform="translate(50,15)"/>
<path d="M0 0 C0.66 0 1.32 0 2 0 C2 5.28 2 10.56 2 16 C1.34 16 0.68 16 0 16 C-0.12181641 16.90492187 -0.12181641 16.90492187 -0.24609375 17.828125 C-1.23665274 20.68175609 -2.47442011 21.27109721 -5.0625 22.75 C-5.79597656 23.17796875 -6.52945313 23.6059375 -7.28515625 24.046875 C-7.85105469 24.36140625 -8.41695313 24.6759375 -9 25 C-9.66 24.34 -10.32 23.68 -11 23 C-5 20 -5 20 -2.6875 19.0625 C-0.8732802 18.15851179 -0.8732802 18.15851179 -0.3984375 16.38671875 C0.14141687 13.15288524 0.09283821 10.02652683 0.0625 6.75 C0.05347656 5.48671875 0.04445313 4.2234375 0.03515625 2.921875 C0.02355469 1.95765625 0.01195313 0.9934375 0 0 Z " fill="#48B6ED" transform="translate(127,80)"/>
<path d="M0 0 C-0.33 0.66 -0.66 1.32 -1 2 C-1.61875 1.835 -2.2375 1.67 -2.875 1.5 C-9.25091623 0.4798534 -15.68040803 0.66955959 -22 2 C-22 1.34 -22 0.68 -22 0 C-14.96357838 -3.20647061 -7.1077596 -3.07362577 0 0 Z " fill="#D0F7FE" transform="translate(72,13)"/>
<path d="M0 0 C1.07765625 0.01804687 2.1553125 0.03609375 3.265625 0.0546875 C4.49539062 0.08949219 4.49539062 0.08949219 5.75 0.125 C5.75 0.785 5.75 1.445 5.75 2.125 C6.74 2.125 7.73 2.125 8.75 2.125 C8.75 2.785 8.75 3.445 8.75 4.125 C8.19183594 3.96257813 7.63367188 3.80015625 7.05859375 3.6328125 C1.50499724 2.41120921 -4.76693163 2.66284843 -10.25 4.125 C-10.25 3.465 -10.25 2.805 -10.25 2.125 C-6.7733662 -0.01836161 -4.03770805 -0.08777626 0 0 Z " fill="#C6F3FD" transform="translate(96.25,10.875)"/>
<path d="M0 0 C0.33 0.99 0.66 1.98 1 3 C-3.6917922 7.0401544 -6.63318297 8.15245319 -12.75 8.0625 C-13.54921875 8.05347656 -14.3484375 8.04445312 -15.171875 8.03515625 C-15.77515625 8.02355469 -16.3784375 8.01195312 -17 8 C-17 7.67 -17 7.34 -17 7 C-16.33613281 6.86722656 -15.67226563 6.73445313 -14.98828125 6.59765625 C-13.66376953 6.33275391 -13.66376953 6.33275391 -12.3125 6.0625 C-9.62676315 5.52535263 -6.95523339 4.99287804 -4.25 4.5625 C-1.81223976 4.22728871 -1.81223976 4.22728871 -0.6875 1.9375 C-0.460625 1.298125 -0.23375 0.65875 0 0 Z " fill="#3DB0E9" transform="translate(68,120)"/>
<path d="M0 0 C0.66 0.33 1.32 0.66 2 1 C-0.31 3.31 -2.62 5.62 -5 8 C-5.66 7.34 -6.32 6.68 -7 6 C-4.69 4.02 -2.38 2.04 0 0 Z " fill="#34AEEB" transform="translate(50,15)"/>
<path d="M0 0 C0.66 0 1.32 0 2 0 C2.66 1.32 3.32 2.64 4 4 C1.23735711 4.59732819 -1.16032769 5 -4 5 C-2.71937515 3.2925002 -1.38232443 1.62626404 0 0 Z " fill="#D6F9FE" transform="translate(77,128)"/>
</svg>
